<svg id="line" xmlns="http://www.w3.org/2000/svg" viewBox="0 0 64 64"><defs><style>.cls-1{fill:#231f20;}</style></defs><title>1</title><path class="cls-1" d="M55,17.75244H50.07959l-1.66553-4.74316a4.00394,4.00394,0,0,0-3.77392-2.6792h-11.71A4.0095,4.0095,0,0,0,29.145,13.02441l-1.62848,4.728H16.82617V14.95117a2.002,2.002,0,0,0-2-2h-3.186a2.002,2.002,0,0,0-2,2v2.80127A5.08484,5.08484,0,0,0,4,22.7525L4,48.667a5.00588,5.00588,0,0,0,5,5H55a5.00588,5.00588,0,0,0,5-5V22.75244A5.00589,5.00589,0,0,0,55,17.75244ZM31.03516,13.67773a2.00712,2.00712,0,0,1,1.895-1.34765h11.71a2.00241,2.00241,0,0,1,1.88672,1.34131l1.43316,4.081H29.63159Zm-19.395,1.27344h3.186v2.80127h-3.186ZM58,48.667a3.00328,3.00328,0,0,1-3,3H9a3.00328,3.00328,0,0,1-3-3V22.75244a3.00328,3.00328,0,0,1,3-3H55a3.00328,3.00328,0,0,1,3,3Z"/><path class="cls-1" d="M32,22.10986A13.61563,13.61563,0,0,0,18.3999,35.71c.747,18.04174,26.456,18.03649,27.20022-.0001A13.61564,13.61564,0,0,0,32,22.10986Zm0,25.19971A11.61292,11.61292,0,0,1,20.3999,35.71c.637-15.38915,22.56559-15.38467,23.20022.00009A11.61293,11.61293,0,0,1,32,47.30957Z"/><path class="cls-1" d="M32,26.04443A9.67637,9.67637,0,0,0,22.335,35.71c.53122,12.82194,18.80081,12.8182,19.3301-.00007A9.67639,9.67639,0,0,0,32,26.04443ZM32,43.375a7.67367,7.67367,0,0,1-7.665-7.665c.38538-10.15532,14.94624-10.15257,15.33009.0001A7.67366,7.67366,0,0,1,32,43.375Z"/><path class="cls-1" d="M54.01563,21.53906h-5.54a2.002,2.002,0,0,0-2,2V26.7085a2.002,2.002,0,0,0,2,2h5.54a2.002,2.002,0,0,0,2-2V23.53906A2.002,2.002,0,0,0,54.01563,21.53906Zm-5.54,5.16944V23.53906h5.54l.00146,3.16944Z"/></svg>