<?xml version="1.0" encoding="utf-8"?>
<!-- Generator: Adobe Illustrator 25.2.1, SVG Export Plug-In . SVG Version: 6.00 Build 0)  -->
<svg version="1.1" xmlns="http://www.w3.org/2000/svg" xmlns:xlink="http://www.w3.org/1999/xlink" x="0px" y="0px"
	 viewBox="0 0 64 64" style="enable-background:new 0 0 64 64;" xml:space="preserve">
<g id="Layer_1">
</g>
<g id="Layer_3">
</g>
<g id="Layer_4">
</g>
<g id="Layer_5">
</g>
<g id="Layer_6">
</g>
<g id="Layer_7">
</g>
<g id="Layer_8">
</g>
<g id="Layer_9">
</g>
<g id="Layer_10">
</g>
<g id="Layer_11">
</g>
<g id="Layer_12">
	<path d="M52.9,57.6L41.5,29.1c-0.3-0.8-0.5-1.7-0.5-2.6v0c0-0.8,0.2-1.7,0.4-2.5l2.5-6.6c0.1-0.3,0.1-0.6-0.1-0.9l-1.4-2.1
		c-0.3-0.4-0.4-0.9-0.4-1.4c0-0.4,0.1-0.9,0.3-1.2l3.5-6.2C46,5.3,46,5,46,4.7c-0.1-0.3-0.3-0.5-0.5-0.6l-4-2
		c-0.3-0.1-0.5-0.1-0.8,0c-0.3,0.1-0.5,0.3-0.6,0.6l-0.4,1C38.6,6.3,36.1,8,33.2,8h-2.4c-2.9,0-5.4-1.7-6.5-4.4l-0.4-1
		c-0.1-0.3-0.3-0.5-0.6-0.6c-0.3-0.1-0.6-0.1-0.8,0l-4,2c-0.2,0.1-0.4,0.3-0.5,0.6C18,5,18,5.3,18.1,5.5l3.5,6.2
		c0.2,0.4,0.3,0.8,0.3,1.2c0,0.5-0.1,1-0.4,1.4l-1.4,2.1C20,16.7,20,17,20.1,17.4l2.5,6.6c0.3,0.8,0.4,1.6,0.4,2.5
		c0,0.9-0.2,1.8-0.5,2.6L11.1,57.6c0,0.1-0.1,0.2-0.1,0.4c0,2.2,2.2,4,5,4c1.6,0,3.1-0.6,4-1.6c0.9,1,2.4,1.6,4,1.6s3.1-0.6,4-1.6
		c0.9,1,2.4,1.6,4,1.6s3.1-0.6,4-1.6c0.9,1,2.4,1.6,4,1.6s3.1-0.6,4-1.6c0.9,1,2.4,1.6,4,1.6c2.8,0,5-1.8,5-4
		C53,57.9,53,57.7,52.9,57.6z M48,60c-1.6,0-3-0.9-3-2c0-0.1-1-5.2-1-5.2l-2,0.4l1,4.9c0,1.1-1.4,1.9-3,1.9c-1.6,0-3-0.9-3-2v-4h-2
		v4c0,1.1-1.4,2-3,2s-3-0.9-3-2v-4h-2v4c0,1.1-1.4,2-3,2c-1.6,0-2.9-0.9-3-1.9l1-4.9l-2-0.4c0,0-1,5.1-1,5.2c0,1.1-1.4,2-3,2
		c-1.5,0-2.9-0.8-3-1.8l11.3-28.4c0.4-0.9,0.6-1.8,0.6-2.8h7v-2h-7.1c-0.1-0.6-0.2-1.2-0.5-1.7l-2.3-6.2l1.1-1.7
		c0.5-0.7,0.8-1.6,0.8-2.5c0-0.8-0.2-1.6-0.6-2.2l-3-5.3l2.1-1c1.4,3.4,4.7,5.6,8.3,5.6h2.4c3.7,0,7-2.2,8.3-5.6l2.1,1l-3,5.3
		c-0.4,0.7-0.6,1.5-0.6,2.2c0,0.9,0.3,1.8,0.8,2.5l1.1,1.7l-2.3,6.2c-0.2,0.6-0.4,1.1-0.5,1.7H34v2h5c0.1,1,0.3,1.9,0.6,2.8L51,58.2
		C50.9,59.2,49.5,60,48,60z"/>
</g>
<g id="Layer_13">
</g>
<g id="Layer_14">
</g>
<g id="Layer_15">
</g>
<g id="Layer_16">
</g>
<g id="Layer_17">
</g>
<g id="Layer_18">
</g>
<g id="Layer_19">
</g>
<g id="Layer_20">
</g>
<g id="Layer_21">
</g>
<g id="Layer_22">
</g>
<g id="Layer_23">
</g>
<g id="Layer_24">
</g>
<g id="Layer_25">
</g>
<g id="Layer_26">
</g>
<g id="Layer_27">
</g>
<g id="Layer_28">
</g>
<g id="Layer_29">
</g>
<g id="Layer_30">
</g>
<g id="Layer_31">
</g>
<g id="Layer_32">
</g>
</svg>
