<?xml version="1.0" encoding="utf-8"?>
<!-- Generator: Adobe Illustrator 24.0.0, SVG Export Plug-In . SVG Version: 6.00 Build 0)  -->
<svg version="1.1" xmlns="http://www.w3.org/2000/svg" xmlns:xlink="http://www.w3.org/1999/xlink" x="0px" y="0px"
	 viewBox="0 0 512 512" style="enable-background:new 0 0 512 512;" xml:space="preserve">
<style type="text/css">
	.st0{display:none;}
	.st1{display:inline;}
	.st2{fill:#B43F36;}
	.st3{fill:#95342D;}
	.st4{fill:#99362E;}
	.st5{fill:#FF5D4C;}
	.st6{display:inline;fill:#B94137;}
	.st7{display:inline;fill:#A23930;}
	.st8{display:inline;fill:#EA9D2D;}
	.st9{display:inline;fill:#C38325;}
	.st10{display:inline;fill:#AC7421;}
	.st11{display:inline;fill:#B97C23;}
	.st12{display:inline;fill:#D18D28;}
	.st13{display:inline;fill:#DA922A;}
	.st14{display:inline;fill:#70400E;}
	.st15{display:inline;fill:#55310B;}
	.st16{display:inline;fill:#9A826A;}
	.st17{display:inline;fill:#C3A691;}
	.st18{fill:#A83B32;}
	.st19{fill:#C7463B;}
	.st20{fill:#DC4D41;}
	.st21{fill:#F55648;}
	.st22{display:inline;fill:#A07A5F;}
	.st23{display:inline;fill:#E4E4E2;}
	.st24{display:inline;fill:#CD9C7A;}
	.st25{display:inline;fill:#BD9070;}
	.st26{display:inline;fill:#A06042;}
	.st27{display:inline;fill:#8F563B;}
	.st28{display:inline;fill:#744630;}
	.st29{display:inline;fill:#76A683;}
	.st30{display:inline;fill:#85BC94;}
	.st31{display:inline;fill:#AAC16B;}
	.st32{display:inline;fill:#F3AF3E;}
	.st33{display:inline;fill:#E08122;}
	.st34{display:inline;fill:#FD9226;}
	.st35{display:inline;fill:#628B6E;}
	.st36{display:inline;fill:#5E8569;}
	.st37{display:inline;fill:#6B9777;}
	.st38{display:inline;fill:#834B10;}
	.st39{display:inline;fill:#C0F5F9;}
	.st40{display:inline;fill:#6FBBC6;}
	.st41{display:inline;fill:#B3E4E8;}
	.st42{display:inline;fill:#EBEBEB;}
	.st43{display:inline;fill:#CDCDCD;}
	.st44{display:inline;fill:#C3C3C3;}
	.st45{display:inline;fill:#DBDBDB;}
	.st46{display:inline;fill:#FDC9A6;}
	.st47{display:inline;fill:#EEB58E;}
	.st48{display:inline;fill:#AE8567;}
	.st49{display:inline;fill:#64390C;}
	.st50{display:inline;fill:#985713;}
	.st51{display:inline;fill:#6CBAE5;}
	.st52{display:inline;fill:#428DC5;}
	.st53{display:inline;fill:#73C7F5;}
	.st54{display:inline;fill:#F0CD93;}
	.st55{display:inline;fill:#FBD699;}
	.st56{display:inline;fill:#4799CF;}
	.st57{display:inline;fill:#3775A4;}
	.st58{display:inline;fill:#41DFD0;}
	.st59{display:inline;fill:#EE83EF;}
	.st60{display:inline;fill:#2DA6A1;}
	.st61{display:inline;fill:#37C9C3;}
	.st62{display:inline;fill:url(#SVGID_1_);}
	.st63{fill:#E4E4E2;}
	.st64{display:inline;fill:#04957C;}
	.st65{display:inline;fill:#05B093;}
	.st66{display:inline;fill:#FBB540;}
	.st67{display:inline;fill:#03816B;}
	.st68{display:inline;fill:#038D75;}
	.st69{fill:#EA9D2D;}
	.st70{display:inline;fill:none;stroke:#000000;stroke-width:16;stroke-linecap:round;stroke-linejoin:round;stroke-miterlimit:10;}
	
		.st71{display:inline;fill:#FFFFFF;stroke:#000000;stroke-width:16;stroke-linecap:round;stroke-linejoin:round;stroke-miterlimit:10;}
	.st72{display:inline;fill:#5EBEF7;}
	.st73{display:inline;fill:#92D1F7;}
	.st74{display:inline;fill:#915628;}
	.st75{display:inline;fill:#A3612D;}
	.st76{display:inline;fill:#EC9DA8;}
	.st77{display:inline;fill:#FAA6B2;}
	.st78{display:inline;fill:#768753;}
	.st79{display:inline;fill:#EAE9E4;}
	.st80{display:inline;fill:#CDCCC8;}
	.st81{display:inline;fill:#A6DEFF;}
	.st82{display:inline;fill:#009CF7;}
	.st83{display:inline;fill:#DCDBD6;}
	.st84{display:inline;fill:#EE9D0D;}
	.st85{fill:#CDCCC8;}
	.st86{fill:#DCDBD6;}
	.st87{display:inline;fill:#B22122;}
	.st88{display:inline;fill:#CB2527;}
	.st89{display:inline;fill:#005DBB;}
	.st90{display:inline;fill:#007AF6;}
	.st91{display:inline;fill:#91A666;}
	.st92{display:inline;fill:#A86E09;}
	.st93{display:inline;fill:#E6E5E0;}
	.st94{display:inline;fill:#7A4922;}
	.st95{fill:#7A4922;}
	.st96{fill:#007AF6;}
	.st97{fill:#005DBB;}
	.st98{display:inline;fill:#0056AC;}
	.st99{fill:#991C1D;}
	.st100{display:inline;fill:#EA2B2D;}
	.st101{display:inline;fill:#991C1D;}
	.st102{fill:#683B0D;}
	.st103{display:inline;fill:#5F967C;}
	.st104{display:inline;fill:#6699CE;}
	.st105{display:inline;fill:#5B89B9;}
	.st106{display:inline;fill:#C7830B;}
	.st107{display:inline;fill:#006DDC;}
	.st108{display:inline;fill:#529FFF;}
	.st109{display:inline;fill:#FFC864;}
	.st110{display:inline;fill:#BBBAB6;}
	.st111{fill:#BBBAB6;}
	.st112{display:inline;fill:#2C91FF;}
	.st113{fill:#A86E09;}
	.st114{display:inline;fill:none;}
	.st115{display:inline;fill:#ECEBE6;}
	.st116{fill:#EC9DA8;}
	.st117{display:inline;fill:#E8B65B;}
	.st118{display:inline;fill:#5B3719;}
	.st119{fill:#5B3719;}
	.st120{display:inline;fill:#667447;}
	.st121{fill:#768753;}
	.st122{fill:#92D1F7;}
	.st123{fill:#F6BB92;}
	.st124{fill:#FBB540;}
	.st125{fill:#A6DEFF;}
	.st126{display:inline;fill:#683B0D;}
	.st127{display:inline;fill:#936108;}
	.st128{fill:#89191A;}
	.st129{display:inline;fill:#F3BE5F;}
	.st130{display:inline;fill:#DCAC56;}
	.st131{display:inline;fill:#B5CF7F;}
	.st132{fill:#91A666;}
	.st133{display:inline;fill:url(#SVGID_2_);}
	.st134{display:inline;fill:url(#SVGID_3_);}
	.st135{display:inline;fill:url(#SVGID_4_);}
	.st136{display:inline;fill:url(#SVGID_5_);}
	.st137{display:inline;fill:url(#SVGID_6_);}
	.st138{display:inline;fill:url(#SVGID_7_);}
	.st139{display:inline;fill:url(#SVGID_8_);}
	.st140{display:inline;fill:url(#SVGID_9_);}
	.st141{display:inline;fill:url(#SVGID_10_);}
	.st142{display:inline;fill:url(#SVGID_11_);}
	.st143{display:inline;fill:url(#SVGID_12_);}
	.st144{display:inline;fill:url(#SVGID_13_);}
	.st145{display:inline;fill:url(#SVGID_14_);}
	.st146{display:inline;fill:url(#SVGID_15_);}
	.st147{display:inline;fill:url(#SVGID_16_);}
	.st148{display:inline;fill:url(#SVGID_17_);}
	.st149{display:inline;fill:url(#SVGID_18_);}
	.st150{display:inline;fill:url(#SVGID_19_);}
	.st151{display:inline;fill:url(#SVGID_20_);}
	.st152{display:inline;fill:url(#SVGID_21_);}
	.st153{display:inline;fill:url(#SVGID_22_);}
	.st154{display:inline;fill:url(#SVGID_23_);}
	.st155{display:inline;fill:url(#SVGID_24_);}
	.st156{display:inline;fill:url(#SVGID_25_);}
	.st157{display:inline;fill:url(#SVGID_26_);}
	.st158{display:inline;fill:url(#SVGID_27_);}
	.st159{display:inline;fill:url(#SVGID_28_);}
	.st160{display:inline;fill:url(#SVGID_29_);}
	.st161{display:inline;fill:url(#SVGID_30_);}
	.st162{display:inline;fill:url(#SVGID_31_);}
	.st163{display:inline;fill:url(#SVGID_32_);}
	.st164{display:inline;fill:url(#SVGID_33_);}
	.st165{display:inline;fill:url(#SVGID_34_);}
	.st166{display:inline;fill:url(#SVGID_35_);}
	.st167{display:inline;fill:url(#SVGID_36_);}
	.st168{display:inline;fill:url(#SVGID_37_);}
	.st169{display:inline;fill:url(#SVGID_38_);}
	.st170{display:inline;fill:url(#SVGID_39_);}
	.st171{display:inline;fill:url(#SVGID_40_);}
	.st172{display:inline;fill:url(#SVGID_41_);}
	.st173{display:inline;fill:url(#SVGID_42_);}
	.st174{display:inline;fill:url(#SVGID_43_);}
	.st175{display:inline;fill:url(#SVGID_44_);}
	.st176{display:inline;fill:url(#SVGID_45_);}
	.st177{display:inline;fill:url(#SVGID_46_);}
	.st178{display:inline;fill:url(#SVGID_47_);}
	.st179{display:inline;fill:url(#SVGID_48_);}
	.st180{display:inline;fill:url(#SVGID_49_);}
	.st181{display:inline;fill:url(#SVGID_50_);}
	.st182{display:inline;fill:url(#SVGID_51_);}
	.st183{display:inline;fill:url(#SVGID_52_);}
	.st184{display:inline;fill:url(#SVGID_53_);}
	.st185{display:inline;fill:url(#SVGID_54_);}
	.st186{display:inline;fill:url(#SVGID_55_);}
	.st187{display:inline;fill:url(#SVGID_56_);}
	.st188{display:inline;fill:url(#SVGID_57_);}
	.st189{display:inline;fill:url(#SVGID_58_);}
	.st190{display:inline;fill:url(#SVGID_59_);}
	.st191{display:inline;fill:url(#SVGID_60_);}
	.st192{display:inline;fill:url(#SVGID_61_);}
	.st193{display:inline;fill:url(#SVGID_62_);}
	.st194{display:inline;fill:url(#SVGID_63_);}
	.st195{display:inline;fill:url(#SVGID_64_);}
	.st196{display:inline;fill:url(#SVGID_65_);}
	.st197{display:inline;fill:url(#SVGID_66_);}
	.st198{display:inline;fill:url(#SVGID_67_);}
	.st199{display:inline;fill:url(#SVGID_68_);}
	.st200{display:inline;fill:url(#SVGID_69_);}
	.st201{display:inline;fill:url(#SVGID_70_);}
	.st202{display:inline;fill:url(#SVGID_71_);}
	.st203{display:inline;fill:url(#SVGID_72_);}
	.st204{display:inline;fill:url(#SVGID_73_);}
</style>
<g id="guide">
</g>
<g id="text">
</g>
<g id="colour" class="st0">
</g>
<g id="stoke" class="st0">
	<line class="st70" x1="232" y1="144" x2="232" y2="160"/>
	<line class="st70" x1="200" y1="224" x2="160" y2="472"/>
	<line class="st70" x1="224" y1="232" x2="200" y2="480"/>
	<path class="st70" d="M335.8,223.2c-5.2-25.8-16-50.2-31.8-71.2l0,0c10.5-20.9,15-44.3,13-67.7L312,24h-16l-40,64l-40-64h-16
		l-5,60.3c-1.9,23.3,2.6,46.7,13,67.7l0,0c-15.8,21.1-26.7,45.4-31.8,71.2L128,464l0,0c36.9,15.8,76.7,24,116.9,24H256h11.1
		c40.2,0,80-8.2,116.9-24l0,0L335.8,223.2z"/>
	<line class="st70" x1="280" y1="144" x2="280" y2="160"/>
	<line class="st70" x1="312" y1="224" x2="352" y2="472"/>
	<line class="st70" x1="288" y1="232" x2="312" y2="480"/>
	<line class="st70" x1="256" y1="232" x2="256" y2="488"/>
	<path class="st70" d="M216,24L216,24c25.7,10.3,54.3,10.3,80,0l0,0"/>
	<path class="st70" d="M200,24L200,24c-10.1,0-19.6,4.7-25.6,12.8L160,56l32,32"/>
	<path class="st70" d="M312,24L312,24c10.1,0,19.6,4.7,25.6,12.8L352,56l-32,32"/>
</g>
<g id="flat" class="st0">
	<path class="st76" d="M296,24c-25.7,10.3-54.3,10.3-80,0l0,0l40,64L296,24z"/>
	<path class="st76" d="M312,24L312,24c10.1,0,19.6,4.7,25.6,12.8L352,56l-40,40V24z"/>
	<path class="st76" d="M200,24L200,24c-10.1,0-19.6,4.7-25.6,12.8L160,56l35.9,35.9L200,24z"/>
	<path class="st77" d="M335.8,223.2c-5.2-25.8-16-50.2-31.8-71.2l0,0c10.5-20.9,15-44.3,13-67.7L312,24h-16l-40,64l-40-64h-16
		l-5,60.3c-1.9,23.3,2.6,46.7,13,67.7l0,0c-15.8,21.1-26.7,45.4-31.8,71.2L128,464l0,0c36.9,15.8,76.7,24,116.9,24H256h11.1
		c40.2,0,80-8.2,116.9-24l0,0L335.8,223.2z"/>
	<path class="st77" d="M207.9,225.3l-40.7,252.4c-5.2-1.4-10.3-3-15.5-4.7l40.4-250.3c0.7-4.4,4.8-7.3,9.2-6.6
		C205.6,216.8,208.6,220.9,207.9,225.3z"/>
	<path class="st77" d="M232,232.8l-24.5,252.9c-5.3-0.7-10.6-1.5-15.8-2.5L216,231.2c0.4-4.4,4.3-7.6,8.7-7.2
		C229.2,224.5,232.4,228.4,232,232.8z"/>
	<path class="st77" d="M264,232v256h-16V232c0-4.4,3.6-8,8-8S264,227.6,264,232z"/>
	<path class="st77" d="M320.3,483.2c-5.2,1-10.5,1.8-15.8,2.5L280,232.8c-0.4-4.4,2.8-8.3,7.2-8.7c4.4-0.4,8.3,2.8,8.7,7.2
		L320.3,483.2z"/>
	<path class="st77" d="M360.3,473c-5.1,1.7-10.3,3.2-15.5,4.7l-40.7-252.4c-0.7-4.4,2.3-8.5,6.6-9.2c4.4-0.7,8.5,2.3,9.2,6.6
		L360.3,473z"/>
	<g class="st1">
		<path class="st116" d="M232,168c-4.4,0-8-3.6-8-8v-16c0-4.4,3.6-8,8-8s8,3.6,8,8v16C240,164.4,236.4,168,232,168z"/>
	</g>
	<g class="st1">
		<path class="st116" d="M207.9,225.3l-40.7,252.4c-5.2-1.4-10.3-3-15.5-4.7l40.4-250.3c0.7-4.4,4.8-7.3,9.2-6.6
			C205.6,216.8,208.6,220.9,207.9,225.3z"/>
	</g>
	<g class="st1">
		<path class="st116" d="M232,232.8l-24.5,252.9c-5.3-0.7-10.6-1.5-15.8-2.5L216,231.2c0.4-4.4,4.3-7.6,8.7-7.2
			C229.2,224.5,232.4,228.4,232,232.8z"/>
	</g>
	<g class="st1">
		<path class="st116" d="M280,168c-4.4,0-8-3.6-8-8v-16c0-4.4,3.6-8,8-8s8,3.6,8,8v16C288,164.4,284.4,168,280,168z"/>
	</g>
	<g class="st1">
		<path class="st116" d="M360.3,473c-5.1,1.7-10.3,3.2-15.5,4.7l-40.7-252.4c-0.7-4.4,2.3-8.5,6.6-9.2c4.4-0.7,8.5,2.3,9.2,6.6
			L360.3,473z"/>
	</g>
	<g class="st1">
		<path class="st116" d="M320.3,483.2c-5.2,1-10.5,1.8-15.8,2.5L280,232.8c-0.4-4.4,2.8-8.3,7.2-8.7c4.4-0.4,8.3,2.8,8.7,7.2
			L320.3,483.2z"/>
	</g>
	<g class="st1">
		<path class="st116" d="M264,232v256h-16V232c0-4.4,3.6-8,8-8S264,227.6,264,232z"/>
	</g>
</g>
<g id="filled_outline" class="st0">
	<path class="st76" d="M296,24c-25.7,10.3-54.3,10.3-80,0l0,0l40,64L296,24z"/>
	<path class="st76" d="M312,24L312,24c10.1,0,19.6,4.7,25.6,12.8L352,56l-40,40V24z"/>
	<path class="st76" d="M200,24L200,24c-10.1,0-19.6,4.7-25.6,12.8L160,56l35.9,35.9L200,24z"/>
	<path class="st77" d="M335.8,223.2c-5.2-25.8-16-50.2-31.8-71.2l0,0c10.5-20.9,15-44.3,13-67.7L312,24h-16l-40,64l-40-64h-16
		l-5,60.3c-1.9,23.3,2.6,46.7,13,67.7l0,0c-15.8,21.1-26.7,45.4-31.8,71.2L128,464l0,0c36.9,15.8,76.7,24,116.9,24H256h11.1
		c40.2,0,80-8.2,116.9-24l0,0L335.8,223.2z"/>
	<g class="st1">
	</g>
	<g class="st1">
		<path d="M232,136c-4.4,0-8,3.6-8,8v16c0,4.4,3.6,8,8,8s8-3.6,8-8v-16C240,139.6,236.4,136,232,136z"/>
		<path d="M391.8,462.4l-48.2-240.8c-5-25.2-15.5-49.5-30.4-70.5c8.2-18,12.3-37.6,12.2-57.3c0.1-0.1,0.1-0.1,0.2-0.2l32-32
			c2.8-2.8,3.1-7.3,0.7-10.5L344,32c-7.5-10-19.5-16-32-16c0,0-17.7,0.1-19,0.6c-23.9,9.6-50.2,9.6-74.1,0c-1.3-0.5-19-0.6-19-0.6
			c-12.5,0-24.5,6-32,16l-14.4,19.2c-2.4,3.2-2.1,7.6,0.7,10.5l32,32c0.1,0.1,0.1,0.1,0.2,0.2c-0.2,19.7,4,39.3,12.2,57.3
			c-14.9,21-25.4,45.3-30.4,70.5l-48.2,240.8c-0.7,3.7,1.2,7.4,4.7,8.9C163,487.7,203.4,496,244.9,496h22.1
			c41.5,0,81.9-8.3,120.1-24.6C390.6,469.9,392.6,466.1,391.8,462.4z M331.2,41.6l10.2,13.6l-17.4,17.4l-3.2-38.9
			C324.9,35.3,328.5,38,331.2,41.6z M278.1,37.6L256,72.9l-22.1-35.3c7.3,1.4,14.7,2.1,22.1,2.1S270.8,39,278.1,37.6z M170.6,55.2
			l10.2-13.6c2.7-3.6,6.3-6.3,10.4-7.9l-3.2,38.9L170.6,55.2z M359,465l-39.1-242.3c-0.7-4.4-4.8-7.3-9.2-6.6
			c-4.4,0.7-7.3,4.8-6.6,9.2l39.4,244.4c-7.9,2.2-15.9,4-24,5.5l-23.6-244c-0.4-4.4-4.3-7.6-8.7-7.2c-4.4,0.4-7.6,4.3-7.2,8.7
			l23.7,244.9c-12.1,1.5-24.3,2.3-36.7,2.3H264V232c0-4.4-3.6-8-8-8s-8,3.6-8,8v248h-3.1c-12.3,0-24.6-0.8-36.7-2.3L232,232.8
			c0.4-4.4-2.8-8.3-7.2-8.7c-4.4-0.4-8.3,2.8-8.7,7.2l-23.6,244c-8.1-1.5-16-3.3-24-5.5l39.4-244.4c0.7-4.4-2.3-8.5-6.6-9.2
			c-4.3-0.7-8.5,2.3-9.2,6.6L153,465c-5.3-1.8-10.6-3.7-15.9-5.9L184,224.8c4.9-24.5,15.4-48,30.4-68c1.8-2.4,2.1-5.7,0.8-8.4
			c-9.8-19.6-14-41.5-12.2-63.4l4.4-53h4.2l37.6,60.2c1.5,2.3,4,3.8,6.8,3.8s5.3-1.4,6.8-3.8L300.4,32h4.2l4.4,53
			c1.8,21.9-2.4,43.8-12.2,63.4c-1.4,2.7-1.1,6,0.8,8.4c15,20,25.5,43.5,30.4,68l46.9,234.3C369.6,461.2,364.3,463.2,359,465z"/>
		<path d="M280,136c-4.4,0-8,3.6-8,8v16c0,4.4,3.6,8,8,8s8-3.6,8-8v-16C288,139.6,284.4,136,280,136z"/>
	</g>
</g>
<g id="line_cut" class="st0">
	<line class="st70" x1="232" y1="144" x2="232" y2="160"/>
	<line class="st70" x1="200" y1="224" x2="160" y2="472"/>
	<line class="st70" x1="224" y1="232" x2="200" y2="480"/>
	<path class="st70" d="M335.8,223.2c-5.2-25.8-16-50.2-31.8-71.2l0,0c10.5-20.9,15-44.3,13-67.7L312,24h-16l-40,64l-40-64h-16
		l-5,60.3c-1.9,23.3,2.6,46.7,13,67.7l0,0c-15.8,21.1-26.7,45.4-31.8,71.2L128,464l0,0c36.9,15.8,76.7,24,116.9,24H256h11.1
		c40.2,0,80-8.2,116.9-24l0,0L335.8,223.2z"/>
	<line class="st70" x1="280" y1="144" x2="280" y2="160"/>
	<line class="st70" x1="312" y1="224" x2="352" y2="472"/>
	<line class="st70" x1="288" y1="232" x2="312" y2="480"/>
	<line class="st70" x1="256" y1="232" x2="256" y2="488"/>
	<path class="st70" d="M216,24L216,24c25.7,10.3,54.3,10.3,80,0l0,0"/>
	<path class="st70" d="M200,24L200,24c-10.1,0-19.6,4.7-25.6,12.8L160,56l32,32"/>
	<path class="st70" d="M312,24L312,24c10.1,0,19.6,4.7,25.6,12.8L352,56l-32,32"/>
</g>
<g id="outline">
	<g>
		<path d="M232,136c-4.4,0-8,3.6-8,8v16c0,4.4,3.6,8,8,8s8-3.6,8-8v-16C240,139.6,236.4,136,232,136z"/>
		<path d="M391.8,462.4l-48.2-240.8c-5-25.2-15.5-49.5-30.4-70.5c8.2-18,12.3-37.6,12.2-57.3c0.1-0.1,0.1-0.1,0.2-0.2l32-32
			c2.8-2.8,3.1-7.3,0.7-10.5L344,32c-7.5-10-19.5-16-32-16c0,0-17.7,0.1-19,0.6c-23.9,9.6-50.2,9.6-74.1,0c-1.3-0.5-19-0.6-19-0.6
			c-12.5,0-24.5,6-32,16l-14.4,19.2c-2.4,3.2-2.1,7.6,0.7,10.5l32,32c0.1,0.1,0.1,0.1,0.2,0.2c-0.2,19.7,4,39.3,12.2,57.3
			c-14.9,21-25.4,45.3-30.4,70.5l-48.2,240.8c-0.7,3.7,1.2,7.4,4.7,8.9C163,487.7,203.4,496,244.9,496h22.1
			c41.5,0,81.9-8.3,120.1-24.6C390.6,469.9,392.6,466.1,391.8,462.4z M331.2,41.6l10.2,13.6l-17.4,17.4l-3.2-38.9
			C324.9,35.3,328.5,38,331.2,41.6z M278.1,37.6L256,72.9l-22.1-35.3c7.3,1.4,14.7,2.1,22.1,2.1S270.8,39,278.1,37.6z M170.6,55.2
			l10.2-13.6c2.7-3.6,6.3-6.3,10.4-7.9l-3.2,38.9L170.6,55.2z M359,465l-39.1-242.3c-0.7-4.4-4.8-7.3-9.2-6.6
			c-4.4,0.7-7.3,4.8-6.6,9.2l39.4,244.4c-7.9,2.2-15.9,4-24,5.5l-23.6-244c-0.4-4.4-4.3-7.6-8.7-7.2c-4.4,0.4-7.6,4.3-7.2,8.7
			l23.7,244.9c-12.1,1.5-24.3,2.3-36.7,2.3H264V232c0-4.4-3.6-8-8-8s-8,3.6-8,8v248h-3.1c-12.3,0-24.6-0.8-36.7-2.3L232,232.8
			c0.4-4.4-2.8-8.3-7.2-8.7c-4.4-0.4-8.3,2.8-8.7,7.2l-23.6,244c-8.1-1.5-16-3.3-24-5.5l39.4-244.4c0.7-4.4-2.3-8.5-6.6-9.2
			c-4.3-0.7-8.5,2.3-9.2,6.6L153,465c-5.3-1.8-10.6-3.7-15.9-5.9L184,224.8c4.9-24.5,15.4-48,30.4-68c1.8-2.4,2.1-5.7,0.8-8.4
			c-9.8-19.6-14-41.5-12.2-63.4l4.4-53h4.2l37.6,60.2c1.5,2.3,4,3.8,6.8,3.8s5.3-1.4,6.8-3.8L300.4,32h4.2l4.4,53
			c1.8,21.9-2.4,43.8-12.2,63.4c-1.4,2.7-1.1,6,0.8,8.4c15,20,25.5,43.5,30.4,68l46.9,234.3C369.6,461.2,364.3,463.2,359,465z"/>
		<path d="M280,136c-4.4,0-8,3.6-8,8v16c0,4.4,3.6,8,8,8s8-3.6,8-8v-16C288,139.6,284.4,136,280,136z"/>
	</g>
</g>
<g id="solid" class="st0">
	<g class="st1">
	</g>
	<g class="st1">
		<path d="M278.1,37.6c-7.3,1.4-14.7,2.1-22.1,2.1s-14.8-0.7-22.1-2.1L256,72.9L278.1,37.6z"/>
		<path d="M191.2,33.7c-4.1,1.6-7.7,4.3-10.4,7.9l-10.2,13.6l17.4,17.4L191.2,33.7z"/>
		<path d="M341.4,55.2l-10.2-13.6c-2.7-3.6-6.3-6.3-10.4-7.9l3.2,38.9L341.4,55.2z"/>
		<path d="M310.7,216.1c4.4-0.7,8.5,2.3,9.2,6.6L359,465c5.3-1.8,10.6-3.7,15.9-5.9L328,224.8c-4.9-24.5-15.4-48-30.4-68
			c-1.8-2.4-2.1-5.7-0.8-8.4c9.8-19.6,14-41.5,12.2-63.4l-4.4-53h-4.2l-37.6,60.2c-1.5,2.3-4,3.8-6.8,3.8s-5.3-1.4-6.8-3.8L211.6,32
			h-4.2l-4.4,53c-1.8,21.9,2.4,43.8,12.2,63.4c1.4,2.7,1.1,6-0.8,8.4c-15,20-25.5,43.5-30.4,68l-46.9,234.3
			c5.3,2.1,10.6,4.1,15.9,5.9l39.1-242.3c0.7-4.4,4.8-7.3,9.2-6.6c4.4,0.7,7.3,4.8,6.6,9.2l-39.4,244.4c7.9,2.2,15.9,4,24,5.5
			l23.6-244c0.4-4.4,4.4-7.6,8.7-7.2c4.4,0.4,7.6,4.3,7.2,8.7l-23.7,244.9c12.1,1.5,24.3,2.3,36.7,2.3h3.1V232c0-4.4,3.6-8,8-8
			s8,3.6,8,8v248h3.1c12.3,0,24.6-0.8,36.7-2.3L280,232.8c-0.4-4.4,2.8-8.3,7.2-8.7c4.4-0.4,8.3,2.8,8.7,7.2l23.6,244
			c8.1-1.5,16-3.3,24-5.5l-39.4-244.4C303.4,220.9,306.4,216.8,310.7,216.1z M244,160c0,4.4-3.6,8-8,8s-8-3.6-8-8v-16
			c0-4.4,3.6-8,8-8s8,3.6,8,8V160z M284,160c0,4.4-3.6,8-8,8s-8-3.6-8-8v-16c0-4.4,3.6-8,8-8s8,3.6,8,8V160z"/>
	</g>
</g>
<g id="solid_gradient" class="st0">
	<linearGradient id="SVGID_1_" gradientUnits="userSpaceOnUse" x1="103.0162" y1="425.0172" x2="408.9838" y2="119.0497">
		<stop  offset="0" style="stop-color:#41DFD0"/>
		<stop  offset="1" style="stop-color:#EE83EF"/>
	</linearGradient>
	<path class="st62" d="M256,72.9l-22.1-35.3c7.3,1.4,14.7,2.1,22.1,2.1s14.8-0.7,22.1-2.1L256,72.9z M191.2,33.7
		c-4.1,1.6-7.7,4.3-10.4,7.9l-10.2,13.6l17.4,17.4L191.2,33.7z M341.4,55.2l-10.2-13.6c-2.7-3.6-6.3-6.3-10.4-7.9l3.2,38.9
		L341.4,55.2z M304.1,225.3l39.4,244.4c-7.9,2.2-15.9,4-24,5.5l-23.6-244c-0.4-4.4-4.3-7.6-8.7-7.2c-4.4,0.4-7.6,4.3-7.2,8.7
		l23.7,244.9c-12.1,1.5-24.3,2.3-36.7,2.3H264V232c0-4.4-3.6-8-8-8s-8,3.6-8,8v248h-3.1c-12.3,0-24.6-0.8-36.7-2.3L232,232.8
		c0.4-4.4-2.8-8.3-7.2-8.7c-4.4-0.4-8.3,2.8-8.7,7.2l-23.6,244c-8.1-1.5-16-3.3-24-5.5l39.4-244.4c0.7-4.4-2.3-8.5-6.6-9.2
		c-4.3-0.7-8.5,2.3-9.2,6.6L153,465c-5.3-1.8-10.6-3.7-15.9-5.9L184,224.8c4.9-24.5,15.4-48,30.4-68c1.8-2.4,2.1-5.7,0.8-8.4
		c-9.8-19.6-14-41.5-12.2-63.4l4.4-53h4.2l37.6,60.2c1.5,2.3,4,3.8,6.8,3.8s5.3-1.4,6.8-3.8L300.4,32h4.2l4.4,53
		c1.8,21.9-2.4,43.8-12.2,63.4c-1.4,2.7-1.1,6,0.8,8.4c15,20,25.5,43.5,30.4,68l46.9,234.3c-5.3,2.1-10.6,4.1-15.9,5.9l-39.1-242.3
		c-0.7-4.4-4.8-7.3-9.2-6.6C306.4,216.8,303.4,220.9,304.1,225.3z M244,144c0-4.4-3.6-8-8-8s-8,3.6-8,8v16c0,4.4,3.6,8,8,8
		s8-3.6,8-8V144z M284,144c0-4.4-3.6-8-8-8s-8,3.6-8,8v16c0,4.4,3.6,8,8,8s8-3.6,8-8V144z"/>
</g>
<g id="gradient" class="st0">
	<linearGradient id="SVGID_2_" gradientUnits="userSpaceOnUse" x1="91.0309" y1="438.3463" x2="420.9691" y2="108.4081">
		<stop  offset="0" style="stop-color:#41DFD0"/>
		<stop  offset="1" style="stop-color:#EE83EF"/>
	</linearGradient>
	<path class="st133" d="M240,144v16c0,4.4-3.6,8-8,8s-8-3.6-8-8v-16c0-4.4,3.6-8,8-8S240,139.6,240,144z M387.2,471.4
		C349,487.7,308.6,496,267.1,496h-22.1c-41.5,0-81.9-8.3-120.1-24.6c-3.5-1.5-5.4-5.2-4.7-8.9l48.2-240.8
		c5-25.2,15.5-49.5,30.4-70.5c-8.2-18-12.3-37.6-12.2-57.3c-0.1-0.1-0.1-0.1-0.2-0.2l-32-32c-2.8-2.8-3.1-7.3-0.7-10.5L168,32
		c7.5-10,19.5-16,32-16c0,0,17.7,0.1,19,0.6c23.9,9.6,50.2,9.6,74.1,0c1.3-0.5,19-0.6,19-0.6c12.5,0,24.5,6,32,16l14.4,19.2
		c2.4,3.2,2.1,7.6-0.7,10.5l-32,32c-0.1,0.1-0.1,0.1-0.2,0.2c0.2,19.7-4,39.3-12.2,57.3c14.9,21,25.4,45.3,30.4,70.5l48.2,240.8
		C392.6,466.1,390.6,469.9,387.2,471.4z M320.8,33.7l3.2,38.9l17.4-17.4l-10.2-13.6C328.5,38,324.9,35.3,320.8,33.7z M256,39.7
		c-7.4,0-14.8-0.7-22.1-2.1L256,72.9l22.1-35.3C270.8,39,263.4,39.7,256,39.7z M187.9,72.6l3.2-38.9c-4.1,1.6-7.7,4.3-10.4,7.9
		l-10.2,13.6L187.9,72.6z M374.9,459.1L328,224.8c-4.9-24.5-15.4-48-30.4-68c-1.8-2.4-2.1-5.7-0.8-8.4c9.8-19.6,14-41.5,12.2-63.4
		l-4.4-53h-4.2l-37.6,60.2c-1.5,2.3-4,3.8-6.8,3.8s-5.3-1.4-6.8-3.8L211.6,32h-4.2l-4.4,53c-1.8,21.9,2.4,43.8,12.2,63.4
		c1.4,2.7,1.1,6-0.8,8.4c-15,20-25.5,43.5-30.4,68l-46.9,234.3c5.3,2.1,10.6,4.1,15.9,5.9l39.1-242.3c0.7-4.4,4.8-7.3,9.2-6.6
		c4.4,0.7,7.3,4.8,6.6,9.2l-39.4,244.4c7.9,2.2,15.9,4,24,5.5l23.6-244c0.4-4.4,4.4-7.6,8.7-7.2c4.4,0.4,7.6,4.3,7.2,8.7
		l-23.7,244.9c12.1,1.5,24.3,2.3,36.7,2.3h3.1V232c0-4.4,3.6-8,8-8s8,3.6,8,8v248h3.1c12.3,0,24.6-0.8,36.7-2.3L280,232.8
		c-0.4-4.4,2.8-8.3,7.2-8.7c4.4-0.4,8.3,2.8,8.7,7.2l23.6,244c8.1-1.5,16-3.3,24-5.5l-39.4-244.4c-0.7-4.4,2.3-8.5,6.6-9.2
		c4.4-0.7,8.5,2.3,9.2,6.6L359,465C364.3,463.2,369.6,461.2,374.9,459.1z M280,136c-4.4,0-8,3.6-8,8v16c0,4.4,3.6,8,8,8s8-3.6,8-8
		v-16C288,139.6,284.4,136,280,136z"/>
</g>
</svg>
