<?xml version="1.0" encoding="utf-8"?>
<!-- Generator: Adobe Illustrator 25.2.3, SVG Export Plug-In . SVG Version: 6.00 Build 0)  -->
<svg version="1.1" xmlns="http://www.w3.org/2000/svg" xmlns:xlink="http://www.w3.org/1999/xlink" x="0px" y="0px"
	 viewBox="0 0 64 64" enable-background="new 0 0 64 64" xml:space="preserve">
<g id="Layer_1">
</g>
<g id="Layer_3">
</g>
<g id="Layer_4">
</g>
<g id="Layer_5">
</g>
<g id="Layer_6">
</g>
<g id="Layer_7">
</g>
<g id="Layer_8">
</g>
<g id="Layer_9">
</g>
<g id="Layer_10">
</g>
<g id="Layer_11">
</g>
<g id="Layer_12">
</g>
<g id="Layer_13">
</g>
<g id="Layer_14">
</g>
<g id="Layer_15">
</g>
<g id="Layer_16">
</g>
<g id="Layer_17">
	<g>
		<path d="M61,44h-3V15c0-1.7-1.3-3-3-3H9c-1.7,0-3,1.3-3,3v29H3c-0.6,0-1,0.4-1,1v2c0,2.8,2.2,5,5,5h50c2.8,0,5-2.2,5-5v-2
			C62,44.4,61.6,44,61,44z M8,15c0-0.6,0.4-1,1-1h46c0.6,0,1,0.4,1,1v29h-2V17c0-0.6-0.4-1-1-1H11c-0.6,0-1,0.4-1,1v27H8V15z M52,44
			H12V18h40V44z M60,47c0,1.7-1.3,3-3,3H7c-1.7,0-3-1.3-3-3v-1h3h4h42h4h3V47z"/>
		<path d="M21,34c0.3,0,0.5-0.1,0.7-0.3l12-12c0.4-0.4,0.4-1,0-1.4s-1-0.4-1.4,0l-12,12c-0.4,0.4-0.4,1,0,1.4
			C20.5,33.9,20.7,34,21,34z"/>
		<path d="M42.3,28.3l-12,12c-0.4,0.4-0.4,1,0,1.4c0.2,0.2,0.5,0.3,0.7,0.3s0.5-0.1,0.7-0.3l12-12c0.4-0.4,0.4-1,0-1.4
			S42.7,27.9,42.3,28.3z"/>
		<path d="M21.3,41.7c0.2,0.2,0.5,0.3,0.7,0.3s0.5-0.1,0.7-0.3l20-20c0.4-0.4,0.4-1,0-1.4s-1-0.4-1.4,0l-20,20
			C20.9,40.7,20.9,41.3,21.3,41.7z"/>
	</g>
</g>
<g id="Layer_18">
</g>
<g id="Layer_19">
</g>
<g id="Layer_20">
</g>
<g id="Layer_21">
</g>
<g id="Layer_22">
</g>
<g id="Layer_23">
</g>
<g id="Layer_24">
</g>
<g id="Layer_25">
</g>
<g id="Layer_26">
</g>
<g id="Layer_27">
</g>
<g id="Layer_28">
</g>
<g id="Layer_29">
</g>
<g id="Layer_30">
</g>
<g id="Layer_31">
</g>
<g id="Layer_32">
</g>
</svg>
