<svg id="Line" xmlns="http://www.w3.org/2000/svg" viewBox="0 0 64 64"><path d="M4.88623,44.6366l14.10449,1.61865a.9799.9799,0,0,0,.11328.00635,1.00253,1.00253,0,0,0,.74854-.33643c.62158-.69922,1.80566-1.66748,2.41211-1.66748.36328,0,1.37158.14111,2.53955.3042A63.65347,63.65347,0,0,0,35.644,45.413c4.62012-.21045,13.19873-1.19287,16.04444-3.54248a1,1,0,0,0,.36328-.771V38.537c0-.022-.01111-.04035-.01251-.062-.002-.03107.00518-.0611.0003-.09229a4.11807,4.11807,0,0,0-1.8042-2.65625c-1.34521-.87744-3.1792-1.01611-5.45215-.41016-5.042,1.33692-15.61181-6.65136-19.25879-9.84423a1.00278,1.00278,0,0,0-1.51757.24023c-.19434.32275-4.875,7.84131-15.11768,1.957a1.00187,1.00187,0,0,0-1.35352.34912c-.14489.23926-3.21423,5.412-2.08508,10.09668H5a1.00005,1.00005,0,0,0-1,1v4.52783A1.0004,1.0004,0,0,0,4.88623,44.6366ZM8.79785,29.8988c9.08594,4.72364,14.42481-.06054,16.23145-2.22314.26391.2196.58862.48553.95819.78229a2.37983,2.37983,0,0,1-.16767.17669.99994.99994,0,1,0,1.291,1.52735,4.36874,4.36874,0,0,0,.45239-.472c.36334.27661.74994.56543,1.15521.86218-.0332.03339-.06024.06794-.0949.10108a.99983.99983,0,1,0,1.37988,1.44726c.12939-.12323.24115-.253.35711-.38134q.58081.40054,1.19306.80267c-.04254.04407-.08057.09509-.12488.13629A1.00016,1.00016,0,0,0,32.793,34.121a5.58892,5.58892,0,0,0,.47314-.51507q.64261.38964,1.30152.76043a2.39312,2.39312,0,0,1-.16626.1897,1.00025,1.00025,0,0,0,1.33789,1.4873,4.40214,4.40214,0,0,0,.63482-.71752c3.20063,1.58941,6.44587,2.58093,8.9228,1.92309a4.94953,4.94953,0,0,1,3.81787.13477,2.17891,2.17891,0,0,1,.66455.65527c-6.09961,2.79248-13.97364,3.42529-23.42285,1.88135C21.043,39.05164,10.2793,38.33191,7.52637,38.15662,6.51807,35.15808,8.002,31.517,8.79785,29.8988ZM6,40.11511s14.25714.83429,20.03418,1.77881a60.77769,60.77769,0,0,0,9.77978.84766,35.78348,35.78348,0,0,0,14.2378-2.6438v.491c-2.40039,1.51855-9.09571,2.58056-14.49854,2.82617a62.24828,62.24828,0,0,1-10.47217-.8335,27.50864,27.50864,0,0,0-2.8164-.32373c-1.40332,0-2.84815,1.25488-3.54346,1.95361L6,42.75134Z"/><path d="M59.98779,30.89783a4.125,4.125,0,0,0-1.80664-2.65821c-1.34521-.87744-3.17822-1.01611-5.45019-.41308-1.855.49072-4.73828-.2627-8.33741-2.18408-.86914-.46436-1.8164-1.01709-2.81738-1.64307a.94158.94158,0,0,0-.10107-.07178c-1.01709-.63476-1.9834-1.30273-2.78565-1.86523-1.06494-.76514-1.99609-1.46387-2.7749-2.0835-1.49121-1.16015-2.437-1.98535-2.44629-1.99365a1.00031,1.00031,0,0,0-1.51855.24316,9.5431,9.5431,0,0,1-5.64014,3.9458,9.73542,9.73542,0,0,1-3.56152.16016A16.32981,16.32981,0,0,1,16.83887,20.181a1.00175,1.00175,0,0,0-1.35254.35107,18.35815,18.35815,0,0,0-2.26953,6.6211,1,1,0,0,0,1.9873.22558A15.90624,15.90624,0,0,1,16.75,22.41052a17.49891,17.49891,0,0,0,5.7373,1.90674,11.72918,11.72918,0,0,0,4.28321-.19678,11.53533,11.53533,0,0,0,6.21484-3.92578c.25934.21436.59052.482.95374.77191a2.3799,2.3799,0,0,1-.171.18024.99993.99993,0,1,0,1.291,1.52734,4.361,4.361,0,0,0,.45441-.47412c.36108.276.74322.56311,1.1532.86426-.03321.03339-.06024.068-.09491.10108a.99983.99983,0,1,0,1.37988,1.44726c.12976-.1236.24188-.25378.35809-.38245.38025.26215.776.52552,1.19495.80072-.04346.04511-.08246.09717-.12775.13935a1.00016,1.00016,0,0,0,1.36426,1.46289,5.59533,5.59533,0,0,0,.47376-.51581q.668.405,1.29882.76373a2.36241,2.36241,0,0,1-.16369.18665A1.00029,1.00029,0,0,0,43.687,28.556a4.37567,4.37567,0,0,0,.63129-.71307c3.70672,1.84863,6.71289,2.50164,8.92584,1.91668a4.94829,4.94829,0,0,1,3.81641.13721,2.18059,2.18059,0,0,1,.6665.65723,28.62529,28.62529,0,0,1-6.54687,2.04052,1.00007,1.00007,0,0,0,.374,1.96485A30.9184,30.9184,0,0,0,58,32.60754v.492a16.02686,16.02686,0,0,1-4.71191,1.60644,1.00006,1.00006,0,0,0,.21045,1.97754,1.01965,1.01965,0,0,0,.2124-.02246c2.85107-.61719,4.84521-1.38428,5.92676-2.2793A1.00042,1.00042,0,0,0,60,33.61121v-2.5586c0-.022-.01111-.04034-.01251-.062C59.98553,30.95941,59.99274,30.9292,59.98779,30.89783Z"/></svg>